# AST/ASF file generated using VICON BodyLanguage
# -----------------------------------------------
:version 1.10
:name VICON
:units
  mass 1.0
  length 0.45
  angle deg
:documentation
   .ast/.asf automatically generated from VICON data using
   VICON BodyBuilder and BodyLanguage model FoxedUp or BRILLIANT.MOD
:root
   order TX TY TZ RX RY RZ
   axis XYZ
   position 0 0 0  
   orientation 0 0 0 
:bonedata
  begin
     id 1 
     name lhipjoint
     direction 0.734343 -0.627749 0.258209 
     length 2.5437 
     axis 0 0 0  XYZ
  end
  begin
     id 2 
     name lfemur
     direction 0.34202 -0.939693 0  
     length 6.7391  
     axis 0 0 20  XYZ
    dof rx ry rz
    limits (-160.0 20.0)
           (-70.0 70.0)
           (-60.0 70.0)
  end
  begin
     id 3 
     name ltibia
     direction 0.34202 -0.939693 0   
     length 7.21536   
     axis 0 0 20   XYZ
    dof rx
    limits (-10.0 170.0)
  end
  begin
     id 4 
     name lfoot
     direction 0.0489572 -0.134509 0.989702   
     length 1.61313   
     axis -90 7.62852e-016 20   XYZ
    dof rx rz
    limits (-45.0 90.0)
           (-70.0 20.0)
  end
  begin
     id 5 
     name ltoes
     direction 1.53451e-011 -4.21692e-011 1   
     length 0.823104   
     axis -90 7.62852e-016 20   XYZ
    dof rx
    limits (-90.0 20.0)
  end
  begin
     id 6 
     name rhipjoint
     direction -0.746398 -0.615468 0.253157   
     length 2.59446  
     axis 0 0 0  XYZ 
  end
  begin
     id 7 
     name rfemur
     direction -0.34202 -0.939693 0   
     length 6.7075   
     axis 0 0 -20   XYZ
    dof rx ry rz
    limits (-160.0 20.0)
           (-70.0 70.0)
           (-70.0 60.0)
  end
  begin
     id 8 
     name rtibia
     direction -0.34202 -0.939693 0   
     length 7.27262   
     axis 0 0 -20   XYZ
    dof rx
    limits (-10.0 170.0)
 end
 begin
     id 9 
     name rfoot
     direction -0.0455203 -0.125066 0.991104   
     length 1.91095  
     axis -90 -7.62852e-016 -20   XYZ
    dof rx rz
    limits (-45.0 90.0)
           (-20.0 70.0)
  end
  begin
     id 10 
     name rtoes
     direction -1.53601e-011 -4.21913e-011 1   
     length 0.969037   
     axis -90 -7.62852e-016 -20   XYZ
    dof rx
    limits (-90.0 20.0)
  end
  begin
     id 11 
     name lowerback
     direction 0.0181546 0.999122 -0.0377542   
     length 1.99916   
     axis 0 0 0   XYZ
    dof rx ry rz
    limits (-20.0 45.0)
           (-30.0 30.0)
           (-30.0 30.0)
  end
  begin
     id 12 
     name upperback
     direction 0.0203486 0.99589 0.0882534   
     length 1.951   
     axis 0 0 0   XYZ
    dof rx ry rz
    limits (-20.0 45.0)
           (-30.0 30.0)
           (-30.0 30.0)
  end
  begin
     id 13 
     name thorax
     direction 0.0131685 0.994241 0.106355   
     length 1.97461   
     axis 0 0 0   XYZ
    dof rx ry rz
    limits (-20.0 45.0)
           (-30.0 30.0)
           (-30.0 30.0)
  end
  begin
     id 14 
     name lowerneck
     direction -0.0281395 0.999325 0.023617   
     length 1.7959   
     axis 0 0 0   XYZ
    dof rx ry rz
    limits (-20.0 45.0)
           (-30.0 30.0)
           (-30.0 30.0)
  end
  begin
     id 15 
     name upperneck
     direction 0.0288721 0.991984 -0.123019   
     length 1.79917   
     axis 0 0 0   XYZ
    dof rx ry rz
    limits (-20.0 45.0)
           (-30.0 30.0)
           (-30.0 30.0)
  end
  begin
     id 16
     name head
     direction 0.0133797 0.998944 -0.0439492  
     length 1.80902  
     axis 0 0 0   XYZ
    dof rx ry rz
    limits (-20.0 45.0)
           (-30.0 30.0)
           (-30.0 30.0)
  end
  begin
     id 17 
     name lclavicle
     direction 0.919195 0.377107 0.113449  
     length 3.17815  
     axis 0 0 0   XYZ
    dof ry rz
    limits (-20.0 10.0)
           (0.0 20.0)
  end
  begin
     id 18 
     name lhumerus
     direction 1 -4.48959e-011 2.13129e-027   
     length 4.84137   
     axis 180 -30 -90   XYZ
    dof rx ry rz
    limits (-60.0 90.0)
           (-90.0 90.0)
           (-90.0 90.0)
  end
  begin
     id 19
     name lradius
     direction 1 -4.48957e-011 -6.30627e-028   
     length 3.2452   
     axis 180 -30 -90   XYZ
    dof rx
    limits (-10.0 170.0)
  end
  begin
     id 20
     name lwrist
     direction 1 -4.4901e-011 9.13299e-027   
     length 1.6226   
     axis -6.84618e-015 90 90   XYZ
    dof ry
    limits (-180.0 0.0)
 end
  begin
     id 21 
     name lhand
     direction 1 -4.48816e-011 1.82293e-026   
     length 0.521221   
     axis -1.16502e-014 90 90   XYZ
    dof rx rz
    limits (-90.0 90.0)
           (-45.0 45.0)
  end
  begin
     id 22 
     name lfingers
     direction 1 -4.49108e-011 3.65687e-026   
     length 0.420221   
     axis -2.33008e-014 90 90   XYZ
    dof rx
    limits (0.0 90.0)
  end
  begin
     id 23
     name lthumb
     direction 0.707107 -6.34943e-011 0.707107   
     length 0.603356   
     axis -90 45 5.69224e-014   XYZ
    dof rx rz
    limits (-45.0 45.0)
           (-45.0 45.0)
  end
  begin
     id 24 
     name rclavicle
     direction -0.90847 0.38596 0.160368   
     length 3.12973  
     axis 0 0 0   XYZ 
    dof ry rz
    limits (-10.0 20.0)
           (-20.0 0.0)
  end
  begin
     id 25 
     name rhumerus
     direction -1 -4.48974e-011 4.47268e-028  
     length 4.72284   
     axis 180 30 90   XYZ
    dof rx ry rz
    limits (-90.0 60.0)
           (-90.0 90.0)
           (-90.0 90.0)
  end
  begin
     id 26 
     name rradius
     direction -1 -4.48969e-011 3.43203e-027   
     length 3.23459   
     axis 180 30 90   XYZ
    dof rx
    limits (-10.0 170.0)
  end
  begin
     id 27 
     name rwrist
     direction -1 -4.48969e-011 9.12911e-027   
     length 1.6173   
     axis -6.84618e-015 -90 -90   XYZ
    dof ry
    limits (-180.0 0.0)
  end
  begin
     id 28
     name rhand
     direction -1 -4.49194e-011 1.83006e-026   
     length 0.307416   
     axis -1.16502e-014 -90 -90   XYZ
    dof rx rz
    limits (-90.0 90.0)
           (-45.0 45.0)
  end
  begin
     id 29
     name rfingers
     direction -1 -4.48423e-011 3.63103e-026   
     length 0.247847   
     axis -2.33008e-014 -90 -90   XYZ
    dof rx
    limits (0.0 90.0)
  end
  begin
     id 30
     name rthumb
     direction -0.707107 -6.34802e-011 0.707107   
     length 0.35586   
     axis -90 -45 -5.69224e-014   XYZ
    dof rx rz
    limits (-45.0 45.0)
           (-45.0 45.0)
  end
:hierarchy
  begin
    root lhipjoint rhipjoint lowerback
    lhipjoint lfemur
    lfemur ltibia
    ltibia lfoot
    lfoot ltoes
    rhipjoint rfemur
    rfemur rtibia
    rtibia rfoot
    rfoot rtoes
    lowerback upperback
    upperback thorax
    thorax lowerneck lclavicle rclavicle
    lowerneck upperneck
    upperneck head
    lclavicle lhumerus
    lhumerus lradius
    lradius lwrist
    lwrist lhand lthumb
    lhand lfingers
    rclavicle rhumerus
    rhumerus rradius
    rradius rwrist
    rwrist rhand rthumb
    rhand rfingers
  end

#!OML:ASF H:\Terrain\Patient Classification 1\Animal1\Tuesday\Animal1.ASF
:FULLY-SPECIFIED
:DEGREES
1
root -1.65655 16.7432 28.3806 -164.39 -36.7855 174.167
lowerback -5.44304 -0.308116 -3.97687
upperback -5.35781 -0.563006 0.0757668
thorax -2.45162 -0.275135 2.29376
lowerneck -5.22617 -6.5807 -7.41138
upperneck 23.6046 -13.2529 12.6832
head 9.6271 -6.37094 4.14623
rclavicle -4.56211e-014 9.54166e-015
rhumerus -44.1178 6.50204 -87.981
rradius 28.045
rwrist -9.1778
rhand -16.3742 28.4429
rfingers 7.12502
rthumb 9.83919 -1.30719
lclavicle -4.56211e-014 9.54166e-015
lhumerus -40.1805 7.64721 76.3163
lradius 34.3165
lwrist -30.2146
lhand 2.26837 43.4147
lfingers 7.12502
lthumb 27.7612 71.3848
rfemur -38.5816 32.3303 4.45275
rtibia 24.6679
rfoot -50.9574 -34.4972
rtoes 56.007
lfemur 4.70933 -14.3606 -27.3486
ltibia 4.38002
lfoot -18.0757 22.9769
ltoes 9.24253
2
root -1.70632 16.7408 28.2949 -164.464 -36.3185 174.741
lowerback -5.69157 -0.349784 -3.67432
upperback -5.51058 -0.629861 0.532878
thorax -2.46467 -0.313934 2.59321
lowerneck -5.46079 -6.38718 -7.96842
upperneck 24.0143 -12.9179 12.5463
head 9.80247 -6.25748 4.229
rclavicle -4.51738e-014 -3.97569e-015
rhumerus -44.1755 7.49549 -87.7916
rradius 27.8327
rwrist -9.22809
rhand -16.9528 28.4285
rfingers 7.12502
rthumb 9.28084 -1.34721
lclavicle -4.51738e-014 -3.97569e-015
lhumerus -40.4245 8.81562 76.3996
lradius 34.3812
lwrist -30.9214
lhand 2.92533 43.5694
lfingers 7.12502
lthumb 28.3892 71.4365
rfemur -38.1884 29.8124 6.38008
rtibia 24.8197
rfoot -44.6373 -35.2691
rtoes 54.4154
lfemur 3.67353 -13.8219 -27.0056
ltibia 6.71091
lfoot -18.2829 22.8805
ltoes 9.67267
3
root -1.74232 16.7512 28.1677 -165.165 -36.7661 175.121
lowerback -5.39147 -0.547927 -3.83002
upperback -5.45581 -0.881764 0.933046
thorax -2.55058 -0.421144 3.08894
lowerneck -5.22478 -6.37724 -8.21654
upperneck 24.0153 -12.8937 12.5297
head 9.76875 -6.28421 4.27729
rclavicle -2.56432e-014 5.56597e-015
rhumerus -44.1781 8.1396 -87.6925
rradius 27.3565
rwrist -9.54273
rhand -17.2176 27.9937
rfingers 7.12502
rthumb 9.02537 -1.79318
lclavicle -2.56432e-014 5.56597e-015
lhumerus -40.6439 9.45366 76.5923
lradius 34.3269
lwrist -31.225
lhand 2.30147 43.4721
lfingers 7.12502
lthumb 27.7929 71.4371
rfemur -36.6894 28.8302 8.17574
rtibia 24.8374
rfoot -41.5816 -35.6631
rtoes 53.3247
lfemur 3.97857 -14.1221 -26.5907
ltibia 8.39535
lfoot -18.7576 22.5258
ltoes 7.77363
4
root -1.77684 16.7534 28.0394 -165.922 -36.9067 175.72
lowerback -5.33317 -0.484381 -3.44973
upperback -5.34482 -0.798872 0.934166
thorax -2.47507 -0.390536 2.87821
lowerneck -4.97802 -6.46419 -7.8839
upperneck 23.988 -13.1025 12.498
head 9.71365 -6.37804 4.1918
rclavicle 5.39452e-014 -5.56597e-015
rhumerus -44.0696 7.67516 -87.7398
rradius 26.8054
rwrist -9.60803
rhand -16.6253 27.2634
rfingers 7.12502
rthumb 9.5969 -2.49798
lclavicle 5.39452e-014 -5.56597e-015
lhumerus -40.6402 9.04058 76.7548
lradius 34.2616
lwrist -30.6201
lhand 1.65446 42.2977
lfingers 7.12502
lthumb 27.1741 70.361
rfemur -35.6313 28.4531 9.69305
rtibia 24.928
rfoot -37.2957 -37.4389
rtoes 50.7361
lfemur 4.16726 -14.1123 -25.9066
ltibia 9.7708
lfoot -20.1341 20.4988
ltoes 15.9648
5
root -1.81399 16.7445 27.9396 -166.304 -36.1871 176.555
lowerback -5.68276 -0.0616847 -2.43734
upperback -5.3285 -0.269351 0.651953
thorax -2.30002 -0.168568 2.03295
lowerneck -4.92311 -6.56959 -7.19777
upperneck 23.935 -13.3346 12.3895
head 9.65962 -6.44764 4.00974
rclavicle 3.87382e-014 5.56597e-015
rhumerus -43.9425 6.1674 -87.5808
rradius 26.35
rwrist -8.79912
rhand -15.8459 27.2394
rfingers 7.12502
rthumb 10.3488 -2.48593
lclavicle 3.87382e-014 5.56597e-015
lhumerus -40.4058 8.09291 76.8552
lradius 34.2597
lwrist -29.76
lhand 0.893846 43.1117
lfingers 7.12502
lthumb 26.4462 71.2866
rfemur -35.4354 27.3104 11.206
rtibia 25.0075
rfoot -30.2637 -38.7945
rtoes 46.9131
lfemur 3.44478 -13.2798 -25.1828
ltibia 11.3065
lfoot -20.2324 19.151
ltoes 22.3593
